<svg width="308" height="81" viewBox="0 0 308 81" fill="none" xmlns="http://www.w3.org/2000/svg">
<path fill-rule="evenodd" clip-rule="evenodd" d="M46.2895 24.6L36.5 32.5H32.7105C32.7105 32.5 21.9737 32 19.8684 22.1L19.4474 18.8V2H36.5L54.0789 14.8V41.8H70.9211V16.9H78.5V73H70.9211V48.7H54.0789V67.1H0.5V41.8H46.3947L46.2895 24.6ZM44.2895 16.9L33.9737 25.4C33.9737 25.4 27.0263 25 27.0263 20.1V9H33.9737L44.2895 16.9ZM7.65789 60V48.7H46.3947V60H7.65789Z" fill="url(#paint0_linear_3_23)"/>
<path d="M27.0263 9H33.9737L44.2895 16.9L33.9737 25.4C33.9737 25.4 27.0263 25 27.0263 20.1M27.0263 9C27.0263 9 27.0263 15.2 27.0263 20.1M27.0263 9V20.1M46.2895 24.6L36.5 32.5H32.7105C32.7105 32.5 21.9737 32 19.8684 22.1L19.4474 18.8V2H36.5L54.0789 14.8V41.8H70.9211V16.9H78.5V73H70.9211V48.7H54.0789V67.1H0.5V41.8H46.3947L46.2895 24.6ZM7.65789 48.7V60H46.3947V48.7H7.65789Z" stroke="url(#paint1_linear_3_23)"/>
<path d="M92.652 62L108.588 15.28H123.436L139.82 62H130.476L116.588 21.488L119.852 22.896H111.852L115.18 21.488L101.74 62H92.652ZM103.788 49.584L106.668 41.904H125.612L128.428 49.584H103.788ZM146.056 62V27.248H153.096V41.968H152.904C152.904 36.976 153.971 33.2 156.104 30.64C158.237 28.08 161.373 26.8 165.512 26.8H166.792V34.544H164.36C161.373 34.544 159.048 35.3547 157.384 36.976C155.763 38.5547 154.952 40.8587 154.952 43.888V62H146.056ZM184.583 63.088C180.573 63.088 177.458 61.7653 175.24 59.12C173.064 56.4747 171.976 52.5493 171.976 47.344V27.184H180.872V48.112C180.872 50.2453 181.469 51.952 182.664 53.232C183.858 54.4693 185.48 55.088 187.528 55.088C189.576 55.088 191.24 54.4267 192.52 53.104C193.842 51.7813 194.504 49.9893 194.504 47.728V27.184H203.4V62H196.36V47.216H197.064C197.064 50.7147 196.616 53.6373 195.72 55.984C194.824 58.3307 193.48 60.1013 191.688 61.296C189.896 62.4907 187.656 63.088 184.968 63.088H184.583ZM220.595 62L209.715 27.248H218.867L229.299 62H220.595ZM223.219 62V54.704H232.627V62H223.219ZM226.739 62L235.699 27.248H244.275L234.867 62H226.739ZM252.658 62V27.248H261.554V62H252.658ZM247.794 33.904V27.248H261.554V33.904H247.794ZM255.922 23.088C254.172 23.088 252.871 22.64 252.018 21.744C251.207 20.8053 250.802 19.6533 250.802 18.288C250.802 16.8373 251.207 15.664 252.018 14.768C252.871 13.872 254.172 13.424 255.922 13.424C257.671 13.424 258.951 13.872 259.762 14.768C260.572 15.664 260.978 16.8373 260.978 18.288C260.978 19.6533 260.572 20.8053 259.762 21.744C258.951 22.64 257.671 23.088 255.922 23.088ZM272.254 62V15.28H281.15V62H272.254ZM267.902 21.936V15.28H281.15V21.936H267.902ZM292.97 62V27.248H301.866V62H292.97ZM288.106 33.904V27.248H301.866V33.904H288.106ZM296.234 23.088C294.485 23.088 293.183 22.64 292.33 21.744C291.519 20.8053 291.114 19.6533 291.114 18.288C291.114 16.8373 291.519 15.664 292.33 14.768C293.183 13.872 294.485 13.424 296.234 13.424C297.983 13.424 299.263 13.872 300.074 14.768C300.885 15.664 301.29 16.8373 301.29 18.288C301.29 19.6533 300.885 20.8053 300.074 21.744C299.263 22.64 297.983 23.088 296.234 23.088Z" fill="black"/>
<defs>
<linearGradient id="paint0_linear_3_23" x1="39.5" y1="2" x2="36.1725" y2="72.8437" gradientUnits="userSpaceOnUse">
<stop stop-color="#04B74F"/>
<stop offset="1" stop-color="#16542F"/>
</linearGradient>
<linearGradient id="paint1_linear_3_23" x1="39.5" y1="2" x2="39.5" y2="73" gradientUnits="userSpaceOnUse">
<stop stop-color="#06AE4C"/>
<stop offset="1" stop-color="#16542F"/>
</linearGradient>
</defs>
</svg>
