<svg width="79" height="72" viewBox="0 0 79 72" fill="none" xmlns="http://www.w3.org/2000/svg">
<path fill-rule="evenodd" clip-rule="evenodd" d="M46.2895 23.1L36.5 31H32.7105C32.7105 31 21.9737 30.5 19.8684 20.6L19.4474 17.3V0.5H36.5L54.0789 13.3V40.3H70.9211V15.4H78.5V71.5H70.9211V47.2H54.0789V65.6H0.5V40.3H46.3947L46.2895 23.1ZM44.2895 15.4L33.9737 23.9C33.9737 23.9 27.0263 23.5 27.0263 18.6V7.5H33.9737L44.2895 15.4ZM7.65789 58.5V47.2H46.3947V58.5H7.65789Z" fill="url(#paint0_linear_1_5)"/>
<path d="M27.0263 7.5H33.9737L44.2895 15.4L33.9737 23.9C33.9737 23.9 27.0263 23.5 27.0263 18.6M27.0263 7.5C27.0263 7.5 27.0263 13.7 27.0263 18.6M27.0263 7.5V18.6M46.2895 23.1L36.5 31H32.7105C32.7105 31 21.9737 30.5 19.8684 20.6L19.4474 17.3V0.5H36.5L54.0789 13.3V40.3H70.9211V15.4H78.5V71.5H70.9211V47.2H54.0789V65.6H0.5V40.3H46.3947L46.2895 23.1ZM7.65789 47.2V58.5H46.3947V47.2H7.65789Z" stroke="url(#paint1_linear_1_5)"/>
<defs>
<linearGradient id="paint0_linear_1_5" x1="39.5" y1="-6" x2="35.8679" y2="71.3294" gradientUnits="userSpaceOnUse">
<stop stop-color="#04B74F"/>
<stop offset="1" stop-color="#16542F"/>
</linearGradient>
<linearGradient id="paint1_linear_1_5" x1="39.5" y1="0.5" x2="39.5" y2="71.5" gradientUnits="userSpaceOnUse">
<stop stop-color="#06AE4C"/>
<stop offset="1" stop-color="#16542F"/>
</linearGradient>
</defs>
</svg>
