<svg width="216" height="151" viewBox="0 0 216 151" fill="none" xmlns="http://www.w3.org/2000/svg">
<path fill-rule="evenodd" clip-rule="evenodd" d="M114.789 23.1L105 31H101.211C101.211 31 90.4737 30.5 88.3684 20.6L87.9474 17.3V0.5H105L122.579 13.3V40.3H139.421V15.4H147V71.5H139.421V47.2H122.579V65.6H69V40.3H114.895L114.789 23.1ZM112.789 15.4L102.474 23.9C102.474 23.9 95.5263 23.5 95.5263 18.6V7.5H102.474L112.789 15.4ZM76.1579 58.5V47.2H114.895V58.5H76.1579Z" fill="url(#paint0_linear_6_30)"/>
<path d="M95.5263 7.5H102.474L112.789 15.4L102.474 23.9C102.474 23.9 95.5263 23.5 95.5263 18.6M95.5263 7.5C95.5263 7.5 95.5263 13.7 95.5263 18.6M95.5263 7.5V18.6M114.789 23.1L105 31H101.211C101.211 31 90.4737 30.5 88.3684 20.6L87.9474 17.3V0.5H105L122.579 13.3V40.3H139.421V15.4H147V71.5H139.421V47.2H122.579V65.6H69V40.3H114.895L114.789 23.1ZM76.1579 47.2V58.5H114.895V47.2H76.1579Z" stroke="url(#paint1_linear_6_30)"/>
<path d="M1.152 131.5L17.088 84.78H31.936L48.32 131.5H38.976L25.088 90.988L28.352 92.396H20.352L23.68 90.988L10.24 131.5H1.152ZM12.288 119.084L15.168 111.404H34.112L36.928 119.084H12.288ZM54.556 131.5V96.748H61.596V111.468H61.404C61.404 106.476 62.4707 102.7 64.604 100.14C66.7373 97.58 69.8733 96.3 74.012 96.3H75.292V104.044H72.86C69.8733 104.044 67.548 104.855 65.884 106.476C64.2627 108.055 63.452 110.359 63.452 113.388V131.5H54.556ZM93.0835 132.588C89.0728 132.588 85.9582 131.265 83.7395 128.62C81.5635 125.975 80.4755 122.049 80.4755 116.844V96.684H89.3715V117.612C89.3715 119.745 89.9688 121.452 91.1635 122.732C92.3582 123.969 93.9795 124.588 96.0275 124.588C98.0755 124.588 99.7395 123.927 101.02 122.604C102.342 121.281 103.004 119.489 103.004 117.228V96.684H111.9V131.5H104.86V116.716H105.564C105.564 120.215 105.116 123.137 104.22 125.484C103.324 127.831 101.98 129.601 100.188 130.796C98.3955 131.991 96.1555 132.588 93.4675 132.588H93.0835ZM129.095 131.5L118.215 96.748H127.367L137.799 131.5H129.095ZM131.719 131.5V124.204H141.127V131.5H131.719ZM135.239 131.5L144.199 96.748H152.775L143.367 131.5H135.239ZM161.158 131.5V96.748H170.054V131.5H161.158ZM156.294 103.404V96.748H170.054V103.404H156.294ZM164.422 92.588C162.672 92.588 161.371 92.14 160.518 91.244C159.707 90.3053 159.302 89.1533 159.302 87.788C159.302 86.3373 159.707 85.164 160.518 84.268C161.371 83.372 162.672 82.924 164.422 82.924C166.171 82.924 167.451 83.372 168.262 84.268C169.072 85.164 169.478 86.3373 169.478 87.788C169.478 89.1533 169.072 90.3053 168.262 91.244C167.451 92.14 166.171 92.588 164.422 92.588ZM180.754 131.5V84.78H189.65V131.5H180.754ZM176.402 91.436V84.78H189.65V91.436H176.402ZM201.47 131.5V96.748H210.366V131.5H201.47ZM196.606 103.404V96.748H210.366V103.404H196.606ZM204.734 92.588C202.985 92.588 201.683 92.14 200.83 91.244C200.019 90.3053 199.614 89.1533 199.614 87.788C199.614 86.3373 200.019 85.164 200.83 84.268C201.683 83.372 202.985 82.924 204.734 82.924C206.483 82.924 207.763 83.372 208.574 84.268C209.385 85.164 209.79 86.3373 209.79 87.788C209.79 89.1533 209.385 90.3053 208.574 91.244C207.763 92.14 206.483 92.588 204.734 92.588Z" fill="white"/>
<defs>
<linearGradient id="paint0_linear_6_30" x1="108" y1="-4.5" x2="104.438" y2="71.3327" gradientUnits="userSpaceOnUse">
<stop stop-color="#04B74F"/>
<stop offset="1" stop-color="#16542F"/>
</linearGradient>
<linearGradient id="paint1_linear_6_30" x1="108" y1="0.5" x2="108" y2="71.5" gradientUnits="userSpaceOnUse">
<stop stop-color="#06AE4C"/>
<stop offset="1" stop-color="#16542F"/>
</linearGradient>
</defs>
</svg>
